<?xml version="1.0" standalone="no"?><!-- Generator: Gravit.io --><svg xmlns="http://www.w3.org/2000/svg" xmlns:xlink="http://www.w3.org/1999/xlink" style="isolation:isolate" viewBox="0 0 200 200" width="200" height="200"><defs><clipPath id="_clipPath_qDhmpoBIzHiFWqY2oVc0AY2vfN4XotDa"><rect width="200" height="200"/></clipPath></defs><g clip-path="url(#_clipPath_qDhmpoBIzHiFWqY2oVc0AY2vfN4XotDa)"><g style="isolation:isolate" id="Layer 0"><polygon points="52.606,181.667,4.878,99,52.606,16.333,148.061,16.333,195.789,99,148.061,181.667" fill="none" vector-effect="non-scaling-stroke" stroke-width="1" stroke="rgb(0,0,0)" stroke-linejoin="miter" stroke-linecap="square" stroke-miterlimit="3"/></g><g style="isolation:isolate" id="aws"><path d=" M 64.748 114.163 L 52.758 119.313 L 63.862 124.061 L 76.737 119.313 L 64.748 114.163 Z  M 46.722 120.6 L 46.321 143.775 L 63.862 151.5 L 63.862 127.439 L 46.722 120.6 L 46.722 120.6 Z  M 82.773 120.6 L 66.921 126.636 L 66.921 149.327 L 82.773 142.889 L 82.773 120.6 Z  M 101.683 48.5 L 89.612 53.65 L 100.797 58.398 L 113.672 53.65 L 101.683 48.5 L 101.683 48.5 Z  M 84.946 55.342 L 84.946 78.517 L 99.912 82.863 L 100.396 61.779 L 84.946 55.342 L 84.946 55.342 Z  M 118.421 56.629 L 104.258 62.665 L 104.258 85.438 L 118.421 79.001 L 118.421 56.629 L 118.421 56.629 Z  M 44.992 81.118 L 33.003 86.268 L 44.106 91.016 L 56.981 86.268 L 44.992 81.118 L 44.992 81.118 Z  M 26.967 87.555 L 26.565 110.73 L 44.106 118.455 L 44.106 94.394 L 26.967 87.555 Z  M 63.017 87.555 L 47.165 93.591 L 47.165 116.282 L 63.017 109.844 L 63.017 87.555 Z  M 83.617 80.263 L 71.628 85.413 L 82.731 90.161 L 95.606 85.413 L 83.617 80.263 Z  M 65.592 86.7 L 65.19 109.875 L 82.731 117.6 L 82.731 93.542 L 65.592 86.7 L 65.592 86.7 Z  M 101.642 86.7 L 85.79 92.736 L 85.79 115.427 L 101.642 108.989 L 101.642 86.7 Z  M 139.41 48.5 L 127.421 53.65 L 138.524 58.398 L 151.399 53.65 L 139.41 48.5 Z  M 121.385 54.937 L 120.983 78.112 L 138.524 85.837 L 138.524 61.779 L 121.385 54.937 Z  M 157.435 54.937 L 141.583 60.973 L 141.583 83.664 L 157.435 77.227 L 157.435 54.937 Z " fill="rgb(0,0,0)"/></g></g></svg>