<?xml version="1.0" standalone="no"?><!-- Generator: Gravit.io --><svg xmlns="http://www.w3.org/2000/svg" xmlns:xlink="http://www.w3.org/1999/xlink" style="isolation:isolate" viewBox="0 0 200 200" width="200" height="200"><defs><clipPath id="_clipPath_cb7LVeYyfrCPF1NquZPHa4GmpZXyR6Xy"><rect width="200" height="200"/></clipPath></defs><g clip-path="url(#_clipPath_cb7LVeYyfrCPF1NquZPHa4GmpZXyR6Xy)"><g style="isolation:isolate" id="Layer 0"><polygon points="52.606,181.667,4.878,99,52.606,16.333,148.061,16.333,195.789,99,148.061,181.667" fill="none" vector-effect="non-scaling-stroke" stroke-width="1" stroke="rgb(0,0,0)" stroke-linejoin="miter" stroke-linecap="square" stroke-miterlimit="3"/></g><g style="isolation:isolate" id="Docker"><g id="g8"><path d=" M 82.5 114.582 C 82.5 114.369 82.484 114.172 82.451 113.975 L 78.926 113.975 L 80.598 111.417 C 80.106 111.155 79.533 111.008 78.926 111.008 C 76.959 111.008 75.352 112.614 75.352 114.582 C 75.352 116.549 76.959 118.156 78.926 118.156 C 80.893 118.156 82.5 116.566 82.5 114.582 Z " fill="rgb(0,0,0)"/><path d=" M 170.61 100.777 C 170.61 100.777 157.461 109.811 147.214 102.416 C 148.197 100.482 149.116 98.481 149.968 96.383 C 157.313 96.776 164.823 94.596 168.413 87.578 L 169.315 85.791 L 167.577 84.775 C 163.331 82.315 157.674 81.987 152.854 83.397 C 152.264 78.282 148.902 73.773 144.886 70.56 L 143.312 69.297 L 141.967 70.855 C 139.295 73.953 138.508 79.102 138.868 83.069 C 139.131 85.971 140.065 88.939 141.836 91.267 C 140.459 92.087 138.918 92.743 137.54 93.202 C 134.72 94.153 131.687 94.677 128.719 94.677 L 122.555 94.677 L 122.555 81.545 L 109.307 81.545 L 109.307 68.756 L 109.307 68.395 L 109.307 55.459 L 95.715 55.459 L 95.715 68.395 L 82.795 68.395 L 82.467 68.395 L 69.22 68.395 L 69.22 81.545 L 56.185 81.545 L 56.185 94.677 L 45.512 94.677 L 45.331 96.596 C 45.102 99.121 45.085 101.646 45.331 104.138 C 39.921 105.712 32.641 106.204 26.821 100.76 C 26.821 100.76 23.591 106.122 19 106.974 L 45.708 106.974 C 46.2 109.811 47.037 112.582 48.233 115.238 L 49.365 117.566 L 49.496 117.779 C 57.333 131.076 71.072 136.667 86.058 136.667 C 111.012 136.667 132.195 127.092 144.623 106.991 L 179.677 106.991 C 179.677 106.991 170.856 106.122 170.61 100.777 Z  M 119.587 83.84 L 120.62 83.84 L 120.62 92.972 L 119.587 92.972 L 119.587 83.84 Z  M 117.357 83.84 L 118.39 83.84 L 118.39 92.972 L 117.357 92.972 L 117.357 83.84 Z  M 115.127 83.84 L 116.16 83.84 L 116.16 92.972 L 115.127 92.972 L 115.127 83.84 Z  M 112.898 83.84 L 113.931 83.84 L 113.931 92.972 L 112.898 92.972 L 112.898 83.84 Z  M 110.914 83.84 L 111.947 83.84 L 111.947 92.972 L 110.914 92.972 L 110.914 83.84 Z  M 106.323 57.558 L 107.356 57.558 L 107.356 66.69 L 106.323 66.69 L 106.323 57.558 Z  M 106.323 70.478 L 107.356 70.478 L 107.356 79.61 L 106.323 79.61 L 106.323 70.478 Z  M 106.323 83.84 L 107.356 83.84 L 107.356 92.972 L 106.323 92.972 L 106.323 83.84 Z  M 104.11 57.558 L 105.143 57.558 L 105.143 66.69 L 104.11 66.69 L 104.11 57.558 Z  M 104.11 70.478 L 105.143 70.478 L 105.143 79.61 L 104.11 79.61 L 104.11 70.478 Z  M 104.11 83.84 L 105.143 83.84 L 105.143 92.972 L 104.11 92.972 L 104.11 83.84 Z  M 101.88 57.558 L 102.913 57.558 L 102.913 66.69 L 101.88 66.69 L 101.88 57.558 Z  M 101.88 70.478 L 102.913 70.478 L 102.913 79.61 L 101.88 79.61 L 101.88 70.478 Z  M 101.88 83.84 L 102.913 83.84 L 102.913 92.972 L 101.88 92.972 L 101.88 83.84 Z  M 99.65 57.558 L 100.683 57.558 L 100.683 66.69 L 99.65 66.69 L 99.65 57.558 Z  M 99.65 70.478 L 100.683 70.478 L 100.683 79.61 L 99.65 79.61 L 99.65 70.478 Z  M 99.65 83.84 L 100.683 83.84 L 100.683 92.972 L 99.65 92.972 L 99.65 83.84 Z  M 97.666 57.558 L 98.699 57.558 L 98.699 66.69 L 97.666 66.69 L 97.666 57.558 Z  M 97.666 70.478 L 98.699 70.478 L 98.699 79.61 L 97.666 79.61 L 97.666 70.478 Z  M 97.666 83.84 L 98.699 83.84 L 98.699 92.972 L 97.666 92.972 L 97.666 83.84 Z  M 93.075 70.478 L 94.108 70.478 L 94.108 79.61 L 93.075 79.61 L 93.075 70.478 Z  M 93.075 83.84 L 94.108 83.84 L 94.108 92.972 L 93.075 92.972 L 93.075 83.84 Z  M 90.846 70.478 L 91.879 70.478 L 91.879 79.61 L 90.846 79.61 L 90.846 70.478 Z  M 90.846 83.84 L 91.879 83.84 L 91.879 92.972 L 90.846 92.972 L 90.846 83.84 Z  M 88.616 70.478 L 89.649 70.478 L 89.649 79.61 L 88.616 79.61 L 88.616 70.478 Z  M 88.616 83.84 L 89.649 83.84 L 89.649 92.972 L 88.616 92.972 L 88.616 83.84 Z  M 86.386 70.478 L 87.419 70.478 L 87.419 79.61 L 86.386 79.61 L 86.386 70.478 Z  M 86.386 83.84 L 87.419 83.84 L 87.419 92.972 L 86.386 92.972 L 86.386 83.84 Z  M 84.402 70.478 L 85.435 70.478 L 85.435 79.61 L 84.402 79.61 L 84.402 70.478 Z  M 84.402 83.84 L 85.435 83.84 L 85.435 92.972 L 84.402 92.972 L 84.402 83.84 Z  M 79.828 70.478 L 80.861 70.478 L 80.861 79.61 L 79.828 79.61 L 79.828 70.478 Z  M 79.828 83.84 L 80.861 83.84 L 80.861 92.972 L 79.828 92.972 L 79.828 83.84 Z  M 77.598 70.478 L 78.631 70.478 L 78.631 79.61 L 77.598 79.61 L 77.598 70.478 Z  M 77.598 83.84 L 78.631 83.84 L 78.631 92.972 L 77.598 92.972 L 77.598 83.84 Z  M 75.368 70.478 L 76.401 70.478 L 76.401 79.61 L 75.368 79.61 L 75.368 70.478 Z  M 75.368 83.84 L 76.401 83.84 L 76.401 92.972 L 75.368 92.972 L 75.368 83.84 Z  M 73.138 70.478 L 74.171 70.478 L 74.171 79.61 L 73.138 79.61 L 73.138 70.478 Z  M 73.138 83.84 L 74.171 83.84 L 74.171 92.972 L 73.138 92.972 L 73.138 83.84 Z  M 71.154 70.478 L 72.187 70.478 L 72.187 79.61 L 71.154 79.61 L 71.154 70.478 Z  M 71.154 83.84 L 72.187 83.84 L 72.187 92.972 L 71.154 92.972 L 71.154 83.84 Z  M 66.646 83.84 L 67.679 83.84 L 67.679 92.972 L 66.646 92.972 L 66.646 83.84 Z  M 64.416 83.84 L 65.449 83.84 L 65.449 92.972 L 64.416 92.972 L 64.416 83.84 Z  M 62.186 83.84 L 63.219 83.84 L 63.219 92.972 L 62.186 92.972 L 62.186 83.84 Z  M 59.956 83.84 L 60.989 83.84 L 60.989 92.972 L 59.956 92.972 L 59.956 83.84 Z  M 57.972 83.84 L 59.005 83.84 L 59.005 92.972 L 57.972 92.972 L 57.972 83.84 Z  M 52.349 120.829 L 52.906 120.779 C 52.447 120.73 52.152 120.681 52.086 120.681 C 51.693 120.632 51.431 120.337 51.496 120.042 C 51.578 119.746 51.955 119.55 52.349 119.599 C 52.463 119.615 62.924 121.042 68.712 118.533 L 68.712 118.533 L 68.712 118.533 C 68.925 118.435 69.138 118.336 69.351 118.238 C 69.679 118.058 70.138 118.123 70.367 118.369 C 70.597 118.615 70.515 118.959 70.187 119.123 C 69.859 119.287 69.531 119.435 69.187 119.582 L 69.417 120.107 C 69.417 120.107 73.827 128.272 88.665 135.568 C 88.665 135.585 65.99 138.241 52.349 120.829 Z  M 73.893 114.582 C 73.893 111.795 76.155 109.548 78.926 109.548 C 81.713 109.548 83.959 111.811 83.959 114.582 C 83.959 117.353 81.697 119.615 78.926 119.615 C 76.155 119.615 73.893 117.369 73.893 114.582 Z  M 147.214 102.4 C 146.246 104.22 145.164 106.089 144.623 106.991 L 45.807 106.991 C 45.676 106.023 45.561 105.056 45.495 104.105 C 45.479 104.105 45.463 104.121 45.446 104.121 C 49.906 102.81 53.07 100.777 53.07 100.777 C 64.924 110.762 84.664 100.777 84.664 100.777 C 99.535 110.762 113.127 100.777 113.127 100.777 C 133.228 111.499 145.279 100.777 145.279 100.777 C 145.902 101.383 146.558 101.924 147.214 102.4 C 147.214 102.4 147.214 102.4 147.214 102.4 Z " fill="rgb(0,0,0)"/></g></g></g></svg>