<?xml version="1.0" standalone="no"?><!-- Generator: Gravit.io --><svg xmlns="http://www.w3.org/2000/svg" xmlns:xlink="http://www.w3.org/1999/xlink" style="isolation:isolate" viewBox="0 0 200 200" width="200" height="200"><defs><clipPath id="_clipPath_lsO0URb9jUx5bIsmaRWB21TZ7nJcK2JZ"><rect width="200" height="200"/></clipPath></defs><g clip-path="url(#_clipPath_lsO0URb9jUx5bIsmaRWB21TZ7nJcK2JZ)"><clipPath id="_clipPath_eA6BhxdzNBdBThMXPxNCtvGqJYWiChjj"><rect x="0" y="0" width="200" height="200" transform="matrix(1,0,0,1,0,0)" fill="rgb(255,255,255)"/></clipPath><g clip-path="url(#_clipPath_eA6BhxdzNBdBThMXPxNCtvGqJYWiChjj)"><g><g><path d=" M 52.606 181.667 L 4.878 99 L 52.606 16.333 L 148.061 16.333 L 195.789 99 L 148.061 181.667 L 52.606 181.667 Z " fill="none" vector-effect="non-scaling-stroke" stroke-width="1" stroke="rgb(0,0,0)" stroke-opacity="100" stroke-linejoin="miter" stroke-linecap="square" stroke-miterlimit="3"/></g><g><g><path d=" M 162.89 65.032 C 161.938 68.811 160.005 72.014 156.009 73.441 C 154.048 74.134 152.793 73.427 150.788 72.85 C 157.148 74.443 161.332 68.191 162.89 65.032 Z  M 170.88 89.856 C 170.419 94.428 169.193 98.885 167.015 102.649 C 162.531 110.219 154.344 114.938 141.283 112.847 C 137.938 127.656 126 125.719 118.897 116.453 C 118.854 116.713 118.825 116.958 118.782 117.174 Q 119.359 118.342 120.181 120.549 C 121.713 124.716 122.844 125.656 122.719 135.334 C 123.656 136.781 125.531 145.312 116.604 144.752 C 116.301 144.752 107.227 145.336 104.675 143.584 C 104.012 144.118 99.411 147.911 98.718 148.373 C 97.781 149.469 97.125 151.531 95.04 152.685 C 91.723 154.474 89.156 154.315 86.905 152.945 C 83.438 150.625 79.25 144 78.165 140.569 C 77.4 138.146 77.004 135.703 80.992 133.992 C 79.438 134.156 74.631 133.935 72.785 133.689 C 72.813 133.906 73.102 136.213 72.972 137.021 C 73 138.5 71.25 139.688 69.583 143.613 C 69.844 145.406 69.531 147.531 69.092 148.964 C 67.125 155.906 50.312 149.541 48.913 148.906 C 46.13 147.637 44.341 145.632 46.072 141.81 C 46.346 141.204 46.966 139.531 47.038 139.315 C 39.75 140.156 32.219 131.281 31.807 126.146 C 31.403 123.737 31.691 123.463 33.105 122.107 C 35.438 119.688 39.406 117.906 39.653 112.732 C 39.219 110.063 38.25 102.469 39.379 98.279 C 37.563 98.75 32.563 98.969 31.475 91.63 C 25.75 85.531 35.625 77.656 41.547 76.727 Q 40.302 80.134 40.23 80.336 C 42.031 81.891 42.219 84.109 41.188 88.688 C 40.5 87.594 39.249 86.033 39.076 85.831 C 38.947 87.807 38.701 89.784 37.302 91.139 C 37.346 91.312 37.36 91.399 37.389 91.413 C 40.641 90.328 41.156 89.391 43.346 86.812 C 46.219 81 54.636 69.34 77.062 66.75 C 80.761 62.996 84.531 59 88.42 58.946 C 92.906 52.5 101.531 45.094 117.916 44.378 C 123.066 44.695 127.869 46.758 133.032 51.013 C 135.094 53.156 140.273 57.316 142.768 58.874 C 144.391 59.828 148.391 62.219 151.567 69.1 C 157.094 67.109 156.063 64.094 159.284 61.989 C 160.203 61.203 164.703 61.422 166.885 64.96 C 171.125 71.25 171.313 87.406 170.88 89.856 Z  M 148.942 70.138 C 148.711 70.138 148.495 70.153 148.278 70.153 C 148.61 70.47 148.855 70.845 149.043 71.263 C 149.129 71.177 149.245 71.09 149.346 71.018 C 149.216 70.73 149.072 70.427 148.942 70.138 Z  M 38.528 83.524 C 39.105 83.452 39.466 83.769 39.913 84.216 C 39.826 83.149 39.624 82.355 38.874 81.908 C 38.817 82.081 38.586 83.134 38.528 83.524 Z  M 40.836 95.192 C 40.894 95.005 41.759 92.351 42.177 91.269 C 41.298 92.062 40.317 92.726 39.12 93.216 C 36.033 94.457 36.091 93.389 34.764 90.707 C 37.591 88.457 36.278 85.687 37.187 82.572 C 37.403 81.85 37.706 81.158 38.124 80.235 C 35.168 82.009 29.73 86.985 33.365 90.764 C 34.781 98.281 38.406 95.969 40.836 95.192 Z  M 41.326 116.612 C 41.219 119 37.576 121.948 36.163 123.391 C 35.11 124.458 34.908 124.487 35.124 126.001 C 36.406 133.563 46.406 138.531 48.106 135.233 C 48.582 134.584 48.812 133.79 49.014 132.968 C 46.719 129.625 43 122.396 41.326 116.612 Z  M 118.407 123.823 C 117.902 122.641 117.628 121.53 117.282 120.405 C 116.532 123.088 115.522 125.626 114.599 128.526 C 113.734 131.281 109.248 139.257 106.623 141.19 C 107.594 142.344 115.609 141.997 116.791 142.012 C 119.812 142.594 122.156 140.437 119.921 135.954 C 119.864 133.704 119.791 131.439 119.734 129.189 C 119.662 127.054 119.243 125.814 118.407 123.823 Z  M 164.88 67.138 C 164.274 65.682 161.88 63.504 160.351 64.989 C 158.808 66.489 157.654 68.61 155.966 69.936 C 153.673 71.739 149.735 71.119 150.456 74.942 C 151.688 78.563 150.352 87.422 148.062 91.139 C 149.906 83.578 149.216 80.552 148.971 78.894 C 144.023 78.375 143.813 86.555 142.076 88.904 C 143.23 86.12 142.581 83.61 143.634 80.624 C 144.009 79.572 144.946 78.663 146.043 78.115 C 145.437 78.028 144.831 78.288 143.937 78.504 C 140.1 79.413 140.273 82.442 137.908 85.312 C 140.187 81.129 139.018 78.36 143.951 77.235 C 145.581 76.86 146.764 76.716 147.831 77.567 C 147.86 77.567 148.466 77.523 148.74 77.509 C 148.596 76.744 148.451 75.994 148.307 75.273 C 146.057 74.985 143.966 75.042 141.658 75.389 C 142.594 74.93 144.203 74.375 145.278 74.191 C 146.219 71.625 141.688 71.289 142.855 74.437 C 141.984 72.984 142.461 71.492 142.826 70.888 C 142.254 71.168 140.879 71.105 140.345 70.932 C 144.34 70.125 144.246 68.93 146.144 69.172 C 147.023 69.293 147.781 69.68 148.87 70.023 C 145.594 63.828 144.875 62.781 140.345 60.374 C 139.004 60.128 137.518 59.883 136.235 60.128 C 137.287 59.71 138.095 59.537 139.018 59.465 C 136.465 57.633 134.258 55.57 131.734 53.45 C 121.998 45.258 114.123 45.849 101.719 51.229 C 96.685 53.421 94.882 55.628 91.795 59.58 C 91.824 59.58 98.17 59.393 101.416 59.09 C 98.069 59.869 94.867 60.489 91.579 60.994 C 87.958 61.542 86.833 61.455 84.107 64.124 C 74.812 73.031 67.406 82.031 64.664 88.601 C 63.106 91.861 63.323 93.101 65.414 95.928 C 67.549 98.813 68.833 100.125 69.741 102.693 C 72.092 99.058 74.934 96.043 77.934 92.423 C 75.496 96.346 68.5 106.313 69.409 110.496 C 71.775 113.222 75.937 117.937 82.174 114.708 C 87.482 111.953 92.531 108.376 98.43 107.914 C 101.473 102.491 100.622 95.668 99.526 89.495 C 98.617 84.36 98.848 79.846 100.074 74.696 C 100.377 79.687 100.781 84.331 101.776 89.221 C 103.219 96.39 103.522 102.592 100.507 110.006 C 93.987 110.164 88.636 113.987 82.867 116.929 C 74.906 120.656 69.698 114.722 66.64 111.376 C 66.943 108.852 67.275 107.279 68.169 105.433 C 67.813 99.313 57.125 95.875 62.486 87.303 C 66.281 79.875 72.756 72.619 75.035 70.066 C 36.562 76.406 36.187 109.969 51.668 132.579 C 51.106 136.704 50.385 139.805 49.231 142.747 C 47.933 146.079 53.108 147.28 55.617 147.973 C 62.156 149.344 67.957 151.77 66.496 143.223 C 68.625 138.563 70.594 138.281 70.434 134.021 C 70.434 131.382 70.376 126.679 70.477 124.992 C 70.837 126.506 71.256 128.627 71.602 130.66 C 77.097 131.641 82.535 131.569 88.03 130.444 C 88.063 129.125 89.473 126.564 89.833 125.28 C 89.375 129 89.25 131.813 89.848 134.872 C 89.444 134.223 88.838 133.588 88.478 132.925 C 86.04 134.526 84.684 135.449 82.29 136.704 C 79.751 138.045 82.665 142.848 83.703 144.507 C 86.011 148.156 88.752 152.483 93.021 150.233 C 94.42 149.498 95.242 147.781 96.18 146.541 C 97.435 145.805 104.098 140.194 105.151 139.574 C 106.651 138.723 112.032 129.896 112.709 127.703 C 114.21 122.828 115.984 119.136 116.474 114.059 C 113.056 112.616 111.382 111.015 108.93 108.13 C 112.378 110.683 115.715 112.068 119.437 113.25 C 124.781 120.187 135.094 127.125 139.09 111.635 C 138.456 111.477 137.821 111.304 137.215 111.131 C 136.537 112.746 136.595 113.366 136.278 114.549 C 135.73 116.568 132.469 118.563 127.999 116.612 C 128.313 118.719 131.98 118.602 133.696 118.213 C 131.576 119.309 130.898 119.352 129.398 119.02 C 125.446 118.141 126.845 113.395 127.696 110.482 C 128.229 108.65 128.056 106.703 127.638 104.871 C 129.138 105.823 130.321 106.645 132.023 107.222 C 139.999 109.905 149.447 112.645 157.481 108.159 C 163.769 104.654 167.217 96.851 167.996 89.726 C 168.673 83.379 167.491 73.456 164.88 67.138 Z  M 123.671 108.65 C 125.406 104.641 124.094 104.5 129.931 101.914 C 123.328 103.113 125.033 102.393 123.671 108.65 Z  M 87.8 67.355 C 85.333 69.807 82.924 78.187 82.16 81.548 C 84.125 77.188 86.625 69.5 90.281 67.859 C 88.622 70.643 88.737 71.336 89.329 75.071 C 89.819 71.278 91.146 69.807 93.295 66.98 C 95.661 66.388 97.867 65.682 100.291 64.73 C 97.565 65.032 94.838 65.321 92.098 65.581 C 89.805 65.782 89.43 65.754 87.8 67.355 Z  M 126.282 74.336 C 127.263 73.802 128.215 73.254 128.979 72.576 C 126.787 73.6 124.22 73.34 122.344 74.624 C 120.671 75.749 118.378 79.297 116.69 80.812 C 117.916 80.336 119.085 79.514 120.181 78.663 C 120.195 79.297 120.406 81.008 121.854 82.139 C 119.602 79.172 124.523 77.651 125.027 80.278 C 124.119 80.956 121.977 82.789 121.133 85.355 C 124.349 81.548 129.008 78.663 133.393 77.437 C 132.167 77.422 130.71 77.653 129.239 78.129 C 128.914 75.773 127.364 74.725 126.282 74.336 Z  M 113.113 73.211 C 113.849 69.936 115.161 66.778 120.253 64.34 C 113.517 66.028 112.248 68.855 113.113 73.211 Z " fill="rgb(0,0,0)"/></g></g></g></g></g></svg>