<?xml version="1.0" standalone="no"?><!-- Generator: Gravit.io --><svg xmlns="http://www.w3.org/2000/svg" xmlns:xlink="http://www.w3.org/1999/xlink" style="isolation:isolate" viewBox="0 0 200 200" width="200" height="200"><defs><clipPath id="_clipPath_ogcWHUyV6HqcbApkVgYuZlk8XZQ8PAim"><rect width="200" height="200"/></clipPath></defs><g clip-path="url(#_clipPath_ogcWHUyV6HqcbApkVgYuZlk8XZQ8PAim)"><g style="isolation:isolate" id="Layer 0"><polygon points="52.606,181.667,4.878,99,52.606,16.333,148.061,16.333,195.789,99,148.061,181.667" fill="none" vector-effect="non-scaling-stroke" stroke-width="1" stroke="rgb(0,0,0)" stroke-linejoin="miter" stroke-linecap="square" stroke-miterlimit="3"/></g><g style="isolation:isolate" id="Kubernetes"><path d=" M 100.073 25 C 97.724 25 95.82 27.116 95.82 29.726 C 95.82 29.766 95.828 29.804 95.829 29.844 C 95.826 30.198 95.808 30.626 95.82 30.934 C 95.876 32.44 96.204 33.592 96.402 34.979 C 96.759 37.947 97.059 40.407 96.874 42.694 C 96.694 43.557 96.059 44.345 95.493 44.893 L 95.393 46.693 C 92.84 46.904 90.271 47.292 87.704 47.874 C 76.661 50.382 67.153 56.07 59.913 63.751 C 59.444 63.431 58.622 62.841 58.378 62.66 C 57.618 62.763 56.851 62.997 55.851 62.415 C 53.948 61.134 52.214 59.365 50.117 57.235 C 49.156 56.216 48.46 55.245 47.318 54.263 C 47.058 54.04 46.663 53.738 46.372 53.509 C 45.48 52.797 44.427 52.426 43.41 52.391 C 42.102 52.346 40.844 52.857 40.02 53.891 C 38.556 55.727 39.024 58.534 41.065 60.161 C 41.086 60.178 41.108 60.191 41.129 60.207 C 41.409 60.434 41.752 60.725 42.01 60.916 C 43.222 61.81 44.329 62.268 45.536 62.978 C 48.08 64.549 50.189 65.852 51.862 67.422 C 52.515 68.119 52.629 69.346 52.716 69.876 L 54.079 71.094 C 46.781 82.076 43.404 95.641 45.4 109.463 L 43.619 109.981 C 43.149 110.588 42.486 111.541 41.792 111.826 C 39.604 112.515 37.141 112.769 34.167 113.08 C 32.771 113.196 31.567 113.127 30.087 113.407 C 29.761 113.469 29.307 113.587 28.951 113.671 C 28.938 113.674 28.927 113.677 28.915 113.68 C 28.895 113.685 28.87 113.694 28.851 113.698 C 26.344 114.304 24.734 116.608 25.252 118.878 C 25.771 121.149 28.219 122.53 30.741 121.986 C 30.759 121.982 30.786 121.982 30.805 121.977 C 30.833 121.971 30.858 121.957 30.887 121.95 C 31.238 121.873 31.679 121.787 31.986 121.705 C 33.441 121.315 34.495 120.743 35.803 120.242 C 38.617 119.232 40.948 118.389 43.219 118.06 C 44.167 117.986 45.167 118.646 45.664 118.924 L 47.518 118.606 C 51.784 131.833 60.725 142.524 72.046 149.232 L 71.273 151.086 C 71.552 151.806 71.859 152.78 71.652 153.491 C 70.826 155.632 69.412 157.891 67.802 160.41 C 67.022 161.574 66.224 162.477 65.521 163.809 C 65.352 164.128 65.138 164.617 64.975 164.954 C 63.882 167.293 64.684 169.987 66.784 170.998 C 68.897 172.015 71.52 170.942 72.655 168.599 C 72.657 168.595 72.662 168.593 72.664 168.589 C 72.665 168.587 72.663 168.583 72.664 168.58 C 72.825 168.248 73.055 167.811 73.191 167.499 C 73.794 166.118 73.994 164.935 74.418 163.6 C 75.543 160.773 76.161 157.807 77.711 155.959 C 78.135 155.453 78.826 155.259 79.543 155.067 L 80.507 153.322 C 90.376 157.11 101.424 158.127 112.46 155.621 C 114.977 155.049 117.408 154.31 119.758 153.422 C 120.028 153.902 120.531 154.825 120.666 155.057 C 121.395 155.295 122.19 155.417 122.838 156.375 C 123.997 158.355 124.79 160.698 125.756 163.527 C 126.179 164.863 126.389 166.046 126.992 167.426 C 127.129 167.741 127.357 168.184 127.519 168.517 C 128.651 170.868 131.282 171.944 133.399 170.925 C 135.498 169.914 136.301 167.22 135.207 164.882 C 135.044 164.545 134.821 164.055 134.653 163.736 C 133.949 162.405 133.151 161.51 132.372 160.347 C 130.761 157.828 129.426 155.735 128.6 153.594 C 128.255 152.49 128.658 151.804 128.927 151.086 C 128.766 150.901 128.422 149.859 128.218 149.368 C 139.984 142.421 148.662 131.332 152.738 118.524 C 153.288 118.61 154.245 118.78 154.555 118.842 C 155.195 118.42 155.783 117.87 156.936 117.961 C 159.207 118.289 161.538 119.132 164.352 120.142 C 165.66 120.643 166.714 121.224 168.169 121.614 C 168.476 121.696 168.917 121.773 169.269 121.85 C 169.297 121.857 169.322 121.871 169.35 121.877 C 169.369 121.882 169.396 121.882 169.414 121.887 C 171.936 122.429 174.385 121.049 174.903 118.778 C 175.421 116.508 173.811 114.203 171.304 113.598 C 170.94 113.515 170.422 113.375 170.068 113.307 C 168.588 113.027 167.384 113.096 165.988 112.98 C 163.014 112.669 160.552 112.415 158.363 111.726 C 157.471 111.38 156.836 110.318 156.527 109.881 L 154.81 109.382 C 155.7 102.939 155.46 96.233 153.919 89.524 C 152.364 82.753 149.615 76.56 145.949 71.103 C 146.39 70.703 147.222 69.966 147.458 69.749 C 147.526 68.986 147.467 68.186 148.257 67.341 C 149.93 65.77 152.039 64.468 154.582 62.897 C 155.79 62.186 156.906 61.729 158.118 60.834 C 158.392 60.631 158.766 60.311 159.054 60.079 C 161.094 58.452 161.564 55.645 160.099 53.809 C 158.634 51.973 155.796 51.8 153.755 53.427 C 153.465 53.657 153.071 53.957 152.81 54.181 C 151.668 55.164 150.963 56.134 150.002 57.153 C 147.905 59.284 146.171 61.061 144.268 62.342 C 143.443 62.822 142.235 62.656 141.687 62.624 L 140.069 63.778 C 130.845 54.106 118.286 47.921 104.762 46.72 C 104.725 46.153 104.675 45.129 104.662 44.821 C 104.109 44.291 103.44 43.839 103.272 42.694 C 103.087 40.407 103.396 37.947 103.754 34.979 C 103.951 33.592 104.279 32.44 104.335 30.934 C 104.348 30.592 104.328 30.096 104.326 29.726 C 104.326 27.116 102.422 25 100.073 25 L 100.073 25 Z  M 94.748 57.989 L 93.484 80.3 L 93.393 80.346 C 93.309 82.341 91.666 83.935 89.649 83.935 C 88.823 83.935 88.061 83.67 87.441 83.217 L 87.404 83.235 L 69.11 70.267 C 74.733 64.738 81.925 60.653 90.213 58.771 C 91.727 58.427 93.24 58.172 94.748 57.989 Z  M 105.408 57.989 C 115.084 59.179 124.033 63.561 130.89 70.276 L 112.714 83.163 L 112.651 83.136 C 111.038 84.314 108.765 84.021 107.507 82.445 C 106.992 81.799 106.722 81.04 106.689 80.273 L 106.671 80.264 L 105.408 57.989 Z  M 62.476 78.601 L 79.18 93.541 L 79.162 93.632 C 80.669 94.943 80.892 97.217 79.634 98.794 C 79.119 99.44 78.43 99.873 77.689 100.075 L 77.671 100.148 L 56.26 106.328 C 55.17 96.363 57.519 86.677 62.476 78.601 Z  M 137.552 78.61 C 140.034 82.632 141.913 87.125 143.032 91.996 C 144.137 96.809 144.415 101.613 143.959 106.255 L 122.438 100.057 L 122.42 99.966 C 120.493 99.44 119.309 97.479 119.758 95.513 C 119.941 94.708 120.369 94.026 120.948 93.523 L 120.939 93.478 L 137.552 78.61 L 137.552 78.61 Z  M 96.647 94.695 L 103.49 94.695 L 107.743 100.012 L 106.217 106.646 L 100.073 109.6 L 93.911 106.637 L 92.385 100.003 L 96.647 94.695 Z  M 118.585 112.889 C 118.876 112.875 119.166 112.901 119.449 112.953 L 119.485 112.908 L 141.632 116.652 C 138.391 125.758 132.189 133.647 123.902 138.926 L 115.304 118.16 L 115.332 118.124 C 114.542 116.289 115.332 114.137 117.149 113.262 C 117.614 113.038 118.101 112.914 118.585 112.889 L 118.585 112.889 Z  M 81.388 112.98 C 83.078 113.004 84.594 114.177 84.987 115.898 C 85.171 116.703 85.081 117.501 84.778 118.206 L 84.842 118.288 L 76.335 138.845 C 68.382 133.741 62.048 126.1 58.659 116.725 L 80.616 112.998 L 80.652 113.044 C 80.898 112.999 81.147 112.977 81.388 112.98 L 81.388 112.98 Z  M 99.937 121.986 C 100.525 121.965 101.123 122.086 101.691 122.359 C 102.435 122.718 103.01 123.282 103.372 123.959 L 103.454 123.959 L 114.278 143.516 C 112.873 143.987 111.429 144.389 109.952 144.724 C 101.674 146.604 93.422 146.034 85.95 143.489 L 96.747 123.968 L 96.765 123.968 C 97.413 122.757 98.642 122.034 99.937 121.986 Z " fill="rgb(0,0,0)" vector-effect="non-scaling-stroke" stroke-width="0.25" stroke="rgb(255,255,255)" stroke-linejoin="miter" stroke-linecap="butt" stroke-miterlimit="4"/></g></g></svg>