<?xml version="1.0" standalone="no"?><!-- Generator: Gravit.io --><svg xmlns="http://www.w3.org/2000/svg" xmlns:xlink="http://www.w3.org/1999/xlink" style="isolation:isolate" viewBox="0 0 200 200" width="200" height="200"><defs><clipPath id="_clipPath_8domZ3nrW3mYEFoD5OT9WtmXux7DyE9v"><rect width="200" height="200"/></clipPath></defs><g clip-path="url(#_clipPath_8domZ3nrW3mYEFoD5OT9WtmXux7DyE9v)"><g style="isolation:isolate" id="Layer 0"><polygon points="52.606,181.667,4.878,99,52.606,16.333,148.061,16.333,195.789,99,148.061,181.667" fill="none" vector-effect="non-scaling-stroke" stroke-width="1" stroke="rgb(0,0,0)" stroke-linejoin="miter" stroke-linecap="square" stroke-miterlimit="3"/></g><g style="isolation:isolate" id="Linux"><path d=" M 149.997 140.681 C 146.748 139.338 144.076 137.256 144.264 133.216 C 144.452 129.201 141.391 126.541 141.391 126.541 C 141.391 126.541 144.076 117.746 141.579 110.482 C 139.095 103.205 130.877 91.563 124.566 82.768 C 118.281 73.973 123.625 63.848 117.892 50.85 C 112.146 37.878 97.241 38.63 89.211 44.176 C 81.169 49.709 83.653 63.472 84.042 69.983 C 84.419 76.469 84.218 81.099 83.478 82.78 C 82.712 84.461 77.556 90.622 74.118 95.778 C 70.681 100.934 68.197 111.636 65.7 116.028 C 63.216 120.431 64.935 124.433 64.935 124.433 C 64.935 124.433 63.216 124.998 61.873 127.884 C 60.531 130.732 57.871 132.074 53.091 133.015 C 48.311 133.969 48.311 137.042 49.453 140.493 C 50.607 143.918 49.453 145.85 48.11 150.241 C 46.768 154.632 53.455 155.974 59.954 156.727 C 66.453 157.505 73.717 161.708 79.839 162.461 C 85.949 163.226 87.869 158.258 87.869 158.258 C 87.869 158.258 94.744 156.727 101.996 156.539 C 109.26 156.338 116.123 158.057 116.123 158.057 C 116.123 158.057 117.465 161.118 119.949 162.448 C 122.446 163.791 127.791 163.979 131.228 160.353 C 134.666 156.715 143.85 152.135 148.994 149.275 C 154.2 146.389 153.247 141.998 149.997 140.681 Z  M 105.27 56.396 C 108.558 56.396 111.192 59.645 111.192 63.647 C 111.192 66.495 109.862 68.942 107.918 70.134 C 107.428 69.908 106.914 69.707 106.362 69.456 C 107.529 68.879 108.357 67.386 108.357 65.655 C 108.357 63.396 106.952 61.565 105.233 61.565 C 103.527 61.565 102.121 63.409 102.121 65.655 C 102.121 66.495 102.322 67.286 102.661 67.951 C 101.645 67.549 100.704 67.16 99.963 66.897 C 99.574 65.931 99.336 64.814 99.336 63.635 C 99.349 59.645 101.996 56.396 105.27 56.396 Z  M 104.844 71.702 C 106.475 72.267 108.307 73.333 108.118 74.387 C 107.918 75.441 107.065 75.441 104.844 76.808 C 102.623 78.151 97.818 81.137 96.275 81.325 C 94.732 81.526 93.866 80.647 92.235 79.593 C 90.604 78.54 87.518 76.018 88.295 74.675 C 88.295 74.675 90.692 72.831 91.746 71.878 C 92.8 70.912 95.51 68.603 97.141 68.904 C 98.772 69.18 103.213 71.125 104.844 71.702 Z  M 90.077 57.55 C 92.662 57.55 94.757 60.624 94.757 64.425 C 94.757 65.128 94.681 65.768 94.556 66.395 C 93.929 66.621 93.289 66.96 92.662 67.474 C 92.348 67.737 92.072 67.976 91.796 68.214 C 92.197 67.449 92.373 66.357 92.185 65.203 C 91.846 63.12 90.453 61.615 89.086 61.841 C 87.718 62.079 86.903 63.936 87.242 66.031 C 87.593 68.126 88.973 69.632 90.341 69.393 C 90.416 69.381 90.491 69.356 90.579 69.331 C 89.914 69.971 89.299 70.523 88.672 70.987 C 86.777 70.109 85.385 67.499 85.385 64.413 C 85.41 60.624 87.493 57.55 90.077 57.55 Z  M 85.033 154.105 C 84.419 156.84 81.207 158.835 81.207 158.835 C 78.296 159.738 70.204 156.238 66.553 154.707 C 62.89 153.189 53.58 152.712 52.351 151.357 C 51.134 149.965 52.966 146.916 53.43 144.031 C 53.881 141.12 52.526 139.301 52.966 137.306 C 53.43 135.323 59.377 135.323 61.66 133.956 C 63.956 132.576 64.408 128.611 66.239 127.545 C 68.071 126.466 71.421 130.28 72.801 132.438 C 74.181 134.558 79.363 143.729 81.495 146.013 C 83.666 148.296 85.636 151.37 85.033 154.105 Z  M 118.833 127.482 C 118.281 130.18 118.281 139.903 118.281 139.903 C 118.281 139.903 112.359 148.108 103.175 149.45 C 94.004 150.793 89.412 149.827 89.412 149.827 L 84.256 143.905 C 84.256 143.905 88.258 143.328 87.693 139.313 C 87.116 135.311 75.461 129.753 73.366 124.785 C 71.27 119.816 72.989 111.398 75.662 107.195 C 78.334 102.992 80.053 93.821 82.725 90.76 C 85.41 87.711 87.493 81.212 86.552 78.351 C 86.552 78.351 92.285 85.239 96.3 84.085 C 100.302 82.931 109.298 76.244 110.628 77.398 C 111.97 78.552 123.437 103.77 124.566 111.799 C 125.721 119.829 123.801 125.926 123.801 125.926 C 123.801 125.926 119.397 124.797 118.833 127.482 Z  M 148.166 145.486 C 146.384 147.117 136.448 151.144 133.474 154.256 C 130.513 157.367 126.637 159.889 124.265 159.149 C 121.882 158.396 119.799 155.146 120.853 150.379 C 121.882 145.636 122.785 140.442 122.634 137.469 C 122.484 134.495 121.882 130.481 122.634 129.891 C 123.375 129.314 124.554 129.602 124.554 129.602 C 124.554 129.602 123.977 135.236 127.377 136.729 C 130.777 138.209 135.682 136.139 137.175 134.633 C 138.668 133.153 139.71 130.932 139.71 130.932 C 139.71 130.932 141.19 131.685 141.052 134.056 C 140.901 136.428 142.081 139.853 144.327 141.032 C 146.522 142.211 149.947 143.842 148.166 145.486 Z " fill="rgb(0,0,0)"/></g></g></svg>