<?xml version="1.0" standalone="no"?><!-- Generator: Gravit.io --><svg xmlns="http://www.w3.org/2000/svg" xmlns:xlink="http://www.w3.org/1999/xlink" style="isolation:isolate" viewBox="0 0 200 200" width="200" height="200"><defs><clipPath id="_clipPath_bHLOVhlY8Bu80M8kGTty7mC6F8GhtulC"><rect width="200" height="200"/></clipPath></defs><g clip-path="url(#_clipPath_bHLOVhlY8Bu80M8kGTty7mC6F8GhtulC)"><g style="isolation:isolate" id="Layer 0"><polygon points="52.606,181.667,4.878,99,52.606,16.333,148.061,16.333,195.789,99,148.061,181.667" fill="none" vector-effect="non-scaling-stroke" stroke-width="1" stroke="rgb(0,0,0)" stroke-linejoin="miter" stroke-linecap="square" stroke-miterlimit="3"/></g><g style="isolation:isolate" id="mariadb"><path d=" M 163.711 55.752 C 161.651 55.818 162.303 56.412 157.852 57.507 C 153.358 58.613 147.868 58.274 143.029 60.303 C 128.582 66.362 125.683 87.07 112.55 94.488 C 102.733 100.033 92.828 100.475 83.924 103.266 C 78.072 105.101 71.67 108.864 66.368 113.433 C 62.253 116.981 62.145 120.1 57.845 124.55 C 53.246 129.31 39.565 124.63 33.365 131.915 C 35.362 133.935 36.238 134.5 40.174 133.976 C 39.359 135.521 34.555 136.823 35.495 139.095 C 36.485 141.486 48.098 143.106 58.656 136.732 C 63.572 133.764 67.489 129.485 75.146 128.464 C 85.055 127.143 96.47 129.311 107.941 130.965 C 106.24 136.037 102.825 139.41 100.09 143.449 C 99.242 144.361 101.791 144.463 104.698 143.912 C 109.929 142.619 113.698 141.578 117.645 139.28 C 122.494 136.457 123.229 129.22 129.179 127.654 C 132.494 132.749 141.51 133.952 147.105 129.877 C 142.196 128.487 140.839 118.038 142.496 113.433 C 144.066 109.075 145.617 102.102 147.198 96.341 C 148.895 90.153 149.521 82.354 151.575 79.202 C 154.665 74.46 158.08 72.832 161.044 70.158 C 164.009 67.483 166.722 64.881 166.633 58.762 C 166.605 56.791 165.586 55.692 163.711 55.752 L 163.711 55.752 Z " fill-rule="evenodd" fill="rgb(0,0,0)"/><path d=" M 37.629 138.659 C 41.388 139.197 44.411 139.197 47.248 138.735 C 50.085 138.273 52.738 137.35 55.756 136.04 C 60.893 133.813 65.854 129.22 71.92 127.273 C 80.83 124.414 90.599 127.276 100.123 127.847 C 102.442 127.986 104.746 127.988 107.02 127.74 C 110.568 125.56 110.495 117.404 113.948 116.657 C 113.846 128.1 109.155 134.956 104.249 141.595 C 114.589 139.769 120.777 133.788 124.956 125.8 C 126.224 123.378 127.307 120.772 128.264 118.041 C 129.744 119.177 128.905 122.634 129.649 124.507 C 136.772 120.54 140.85 111.485 143.551 102.328 C 146.675 91.73 147.955 80.998 149.97 77.862 C 151.937 74.802 154.997 72.915 157.792 70.955 C 160.967 68.727 163.798 66.405 164.288 62.16 C 160.939 61.85 160.165 61.076 159.67 59.388 C 157.993 60.333 156.452 60.535 154.71 60.587 C 153.199 60.633 151.539 60.566 149.511 60.774 C 132.741 62.497 130.611 80.98 119.862 91.458 C 119.08 92.22 118.234 92.93 117.341 93.597 C 113.576 96.402 108.958 98.407 104.712 100.03 C 97.838 102.657 91.303 102.844 84.853 105.111 C 80.119 106.775 75.308 109.188 71.419 111.85 C 70.447 112.515 69.531 113.196 68.688 113.885 C 66.406 115.752 64.909 117.823 63.46 119.954 C 61.966 122.15 60.523 124.409 58.323 126.567 C 54.76 130.066 41.444 127.588 36.757 130.832 C 36.234 131.193 35.819 131.627 35.537 132.147 C 38.095 133.309 39.803 132.596 42.745 132.922 C 43.131 135.714 36.675 137.373 37.629 138.659 L 37.629 138.659 Z " fill="rgb(255,255,255)"/><path d=" M 139.226 118.544 C 139.426 121.748 141.286 128.103 142.927 129.647 C 139.712 130.429 134.174 129.137 132.753 126.87 C 133.483 123.595 137.282 120.602 139.226 118.544 L 139.226 118.544 Z " fill-rule="evenodd" fill="rgb(255,255,255)"/><path d=" M 143.936 67.709 C 146.31 69.77 151.291 68.116 150.401 64.015 C 146.712 63.71 144.576 64.962 143.936 67.709 Z " fill-rule="evenodd" fill="rgb(0,0,0)"/><path d=" M 160.486 62.917 C 159.855 64.241 158.646 65.949 158.646 69.32 C 158.641 69.899 158.206 70.296 158.199 69.403 C 158.232 66.108 159.104 64.684 160.03 62.812 C 160.461 62.045 160.72 62.361 160.486 62.917 Z " fill="rgb(0,0,0)"/><path d=" M 159.85 62.418 C 159.105 63.682 157.312 65.987 157.015 69.345 C 156.961 69.921 156.492 70.278 156.563 69.388 C 156.887 66.109 158.32 64.057 159.408 62.273 C 159.901 61.547 160.133 61.885 159.85 62.418 Z " fill="rgb(0,0,0)"/><path d=" M 159.271 61.757 C 158.422 62.953 155.661 65.721 155.084 69.044 C 154.98 69.612 154.484 69.929 154.63 69.048 C 155.227 65.807 157.607 63.26 158.841 61.575 C 159.394 60.893 159.596 61.249 159.271 61.757 L 159.271 61.757 Z " fill="rgb(0,0,0)"/><path d=" M 158.753 61.02 C 157.745 62.085 154.454 65.615 153.417 68.822 C 153.233 69.371 152.697 69.615 152.966 68.763 C 154.012 65.638 156.895 62.273 158.353 60.779 C 158.997 60.181 159.147 60.562 158.753 61.02 Z " fill="rgb(0,0,0)"/></g></g></svg>