<?xml version="1.0" standalone="no"?><!-- Generator: Gravit.io --><svg xmlns="http://www.w3.org/2000/svg" xmlns:xlink="http://www.w3.org/1999/xlink" style="isolation:isolate" viewBox="0 0 200 200" width="200" height="200"><defs><clipPath id="_clipPath_SHDnoQ1H0DMCA6GFfUl1YSjjAxxnVhK3"><rect width="200" height="200"/></clipPath></defs><g clip-path="url(#_clipPath_SHDnoQ1H0DMCA6GFfUl1YSjjAxxnVhK3)"><g style="isolation:isolate" id="Layer 0"><polygon points="52.606,181.667,4.878,99,52.606,16.333,148.061,16.333,195.789,99,148.061,181.667" fill="none" vector-effect="non-scaling-stroke" stroke-width="1" stroke="rgb(0,0,0)" stroke-linejoin="miter" stroke-linecap="square" stroke-miterlimit="3"/></g><g style="isolation:isolate" id="open source"><g id="Group"><path d=" M 103.443 121.397 C 114.151 117.285 119.499 105.269 115.388 94.557 C 111.277 83.846 99.264 78.496 88.557 82.608 C 77.849 86.721 72.501 98.737 76.612 109.449 C 78.72 114.944 83.062 119.287 88.557 121.397 L 74.568 157.861 C 43.728 146.019 28.324 111.413 40.161 80.564 C 51.998 49.714 86.593 34.305 117.433 46.146 C 148.272 57.986 163.676 92.593 151.839 123.442 C 145.766 139.272 133.261 151.782 117.433 157.86 L 103.443 121.397" fill="rgb(61,166,57)"/><path d=" M 117.432 160 C 116.547 160 115.753 159.454 115.436 158.627 L 101.446 122.164 C 101.023 121.061 101.574 119.824 102.677 119.4 C 107.322 117.616 110.995 114.129 113.019 109.582 C 115.043 105.034 115.175 99.971 113.392 95.324 C 109.71 85.731 98.913 80.923 89.324 84.605 C 79.733 88.289 74.926 99.089 78.608 108.682 C 80.503 113.609 84.396 117.504 89.323 119.4 C 90.426 119.824 90.977 121.061 90.553 122.164 L 76.564 158.627 C 76.141 159.73 74.904 160.281 73.801 159.857 C 58.353 153.927 46.138 142.332 39.407 127.211 C 32.676 112.089 32.234 95.251 38.164 79.798 C 44.093 64.344 55.684 52.126 70.801 45.392 C 85.917 38.659 102.75 38.217 118.199 44.148 C 133.647 50.08 145.862 61.674 152.593 76.795 C 159.324 91.917 159.765 108.755 153.835 124.208 C 147.554 140.58 134.565 153.573 118.198 159.857 C 117.954 159.951 117.694 159.999 117.433 159.999 L 117.432 160 Z  M 95.98 44.28 C 88.004 44.28 80.046 45.958 72.541 49.3 C 58.468 55.57 47.677 66.944 42.157 81.331 C 36.637 95.718 37.048 111.393 43.314 125.471 C 49.29 138.895 59.907 149.333 73.351 155.061 L 85.83 122.534 C 80.681 119.977 76.679 115.582 74.615 110.216 C 70.089 98.42 75.999 85.14 87.79 80.612 C 99.583 76.084 112.858 81.996 117.384 93.791 C 119.578 99.505 119.415 105.731 116.926 111.322 C 114.73 116.257 110.954 120.177 106.171 122.537 L 118.648 155.06 C 132.949 148.949 144.251 137.251 149.843 122.676 C 155.363 108.29 154.952 92.614 148.686 78.537 C 142.42 64.459 131.048 53.666 116.666 48.144 C 109.953 45.567 102.96 44.281 95.979 44.281 L 95.98 44.28 Z  M 149.261 151.364 C 148.486 152.156 148.099 153.096 148.099 154.184 C 148.099 155.311 148.493 156.269 149.281 157.058 C 150.065 157.846 151.012 158.24 152.122 158.24 C 153.227 158.24 154.172 157.844 154.956 157.051 C 155.739 156.254 156.131 155.299 156.131 154.184 C 156.131 153.101 155.741 152.16 154.962 151.364 C 154.174 150.553 153.227 150.148 152.122 150.148 C 151.003 150.148 150.049 150.553 149.261 151.364 Z  M 155.53 157.679 C 154.583 158.595 153.447 159.052 152.122 159.052 C 150.752 159.052 149.598 158.583 148.66 157.646 C 147.722 156.708 147.253 155.554 147.253 154.184 C 147.253 152.762 147.76 151.579 148.772 150.636 C 149.724 149.756 150.84 149.315 152.121 149.315 C 153.465 149.315 154.612 149.791 155.563 150.742 C 156.515 151.694 156.99 152.841 156.99 154.184 C 156.99 155.567 156.503 156.732 155.53 157.679 Z  M 152.564 152.559 C 152.37 152.484 152.097 152.447 151.745 152.447 L 151.402 152.447 L 151.402 154.013 L 151.95 154.013 C 152.28 154.013 152.538 153.947 152.723 153.814 C 152.908 153.682 153 153.468 153 153.173 C 153 152.878 152.855 152.673 152.564 152.559 L 152.564 152.559 Z  M 149.988 156.893 L 149.988 151.496 C 150.323 151.496 150.823 151.497 151.491 151.499 C 152.158 151.501 152.529 151.504 152.604 151.509 C 153.031 151.54 153.385 151.632 153.668 151.786 C 154.148 152.05 154.387 152.48 154.387 153.074 C 154.387 153.528 154.261 153.856 154.008 154.059 C 153.754 154.261 153.443 154.382 153.073 154.422 C 153.412 154.493 153.668 154.596 153.839 154.733 C 154.156 154.988 154.315 155.391 154.315 155.941 L 154.315 156.424 C 154.315 156.476 154.318 156.529 154.325 156.582 C 154.332 156.635 154.343 156.688 154.361 156.741 L 154.407 156.893 L 153.059 156.893 C 153.016 156.721 152.987 156.472 152.974 156.146 C 152.96 155.82 152.932 155.6 152.888 155.486 C 152.822 155.301 152.677 155.155 152.492 155.089 C 152.386 155.045 152.225 155.016 152.009 155.003 L 151.699 154.984 L 151.402 154.984 L 151.402 156.893 L 149.988 156.893 L 149.988 156.893 Z " fill="rgb(29,83,29)"/></g></g></g></svg>