<?xml version="1.0" standalone="no"?><!-- Generator: Gravit.io --><svg xmlns="http://www.w3.org/2000/svg" xmlns:xlink="http://www.w3.org/1999/xlink" style="isolation:isolate" viewBox="0 0 200 200" width="200" height="200"><defs><clipPath id="_clipPath_yq2aYRea7HimZ2r9MoJOukN4rEAnZCv7"><rect width="200" height="200"/></clipPath></defs><g clip-path="url(#_clipPath_yq2aYRea7HimZ2r9MoJOukN4rEAnZCv7)"><g style="isolation:isolate" id="Layer 0"><polygon points="52.606,181.667,4.878,99,52.606,16.333,148.061,16.333,195.789,99,148.061,181.667" fill="none" vector-effect="non-scaling-stroke" stroke-width="1" stroke="rgb(0,0,0)" stroke-linejoin="miter" stroke-linecap="square" stroke-miterlimit="3"/></g><g style="isolation:isolate" id="redis"><path d=" M 164.901 69.784 L 164.901 69.784 C 157.472 73.638 118.935 89.517 110.763 93.789 C 102.544 98.06 97.994 98.014 91.54 94.903 C 85.086 91.792 44.041 75.263 36.659 71.734 C 32.991 69.969 31.087 68.484 31.04 67.091 L 31.04 81.159 C 31.04 82.552 32.991 84.038 36.659 85.802 C 44.041 89.331 85.04 105.907 91.494 108.972 C 97.994 112.082 102.544 112.129 110.716 107.857 C 118.935 103.586 157.426 87.753 164.855 83.852 L 164.855 83.852 C 168.662 81.902 170.334 80.37 170.334 78.977 C 170.334 77.677 170.334 65.094 170.334 65.094 C 170.334 65.094 170.334 65.094 170.334 65.094 C 170.287 66.441 168.523 67.927 164.901 69.784 Z " fill="rgb(0,0,0)"/><path d=" M 164.901 93.603 L 164.901 93.603 C 157.472 97.457 118.935 113.336 110.763 117.608 C 102.544 121.879 97.994 121.833 91.54 118.722 C 85.04 115.611 44.088 99.082 36.705 95.553 C 33.037 93.789 31.133 92.303 31.087 90.91 L 31.087 104.979 C 31.087 106.371 33.037 107.857 36.705 109.622 C 44.088 113.15 85.086 129.726 91.54 132.791 C 98.041 135.902 102.591 135.948 110.763 131.676 C 118.981 127.405 157.472 111.572 164.901 107.672 C 168.709 105.721 170.38 104.189 170.38 102.796 C 170.38 101.496 170.38 88.913 170.38 88.913 C 170.38 88.913 170.38 88.913 170.38 88.913 C 170.287 90.26 168.523 91.746 164.901 93.603 Z " fill="rgb(0,0,0)"/><path d=" M 164.901 116.586 C 164.901 116.586 118.935 137.016 110.763 141.288 C 102.544 145.559 97.994 144.816 91.54 141.706 C 85.04 138.595 44.088 122.065 36.705 118.536 C 33.037 116.772 31.133 115.286 31.087 113.893 L 31.087 127.962 C 31.087 129.355 33.037 130.841 36.705 132.605 C 44.088 136.134 85.086 152.71 91.54 155.774 C 98.041 158.885 102.591 158.931 110.763 154.66 C 118.981 150.388 157.472 135.252 164.901 131.351 C 168.709 129.401 170.38 127.173 170.38 125.78 C 170.38 124.48 170.38 111.897 170.38 111.897 C 170.38 111.897 170.38 111.897 170.38 111.897 C 170.287 113.243 168.523 114.729 164.901 116.586 Z " fill="rgb(0,0,0)"/><path d=" M 54.952 66.534 C 54.952 62.819 62.66 59.847 72.225 59.847 C 81.79 59.847 89.497 62.866 89.497 66.534 C 89.497 70.202 81.743 73.22 72.225 73.22 C 62.66 73.22 54.952 70.202 54.952 66.534 Z  M 103.427 87.753 L 80.907 78.42 L 113.224 73.452 L 103.427 87.753 Z  M 106.862 57.48 L 104.169 63.98 L 99.805 56.737 L 85.876 55.483 L 96.276 51.722 L 93.165 45.965 L 102.916 49.772 L 112.109 46.754 L 109.648 52.697 L 119.027 56.226 L 106.862 57.48 Z " fill="rgb(0,0,0)"/><path d=" M 112.25 66.125 L 133.375 57.875 L 152.125 65.625 L 131 73.75 L 112.25 66.125 Z " fill="rgb(0,0,0)"/></g></g></svg>