<?xml version="1.0" standalone="no"?><!-- Generator: Gravit.io --><svg xmlns="http://www.w3.org/2000/svg" xmlns:xlink="http://www.w3.org/1999/xlink" style="isolation:isolate" viewBox="0 0 512 512" width="512" height="512"><defs><clipPath id="_clipPath_QHDHXjwzLoh7mDEnRLiPg6Yk3HlMtlij"><rect width="512" height="512"/></clipPath></defs><g clip-path="url(#_clipPath_QHDHXjwzLoh7mDEnRLiPg6Yk3HlMtlij)"><path d=" M 130.667 122.667 L 248 122.667 C 252.415 122.667 256 126.251 256 130.667 L 256 221.333 C 256 225.749 259.585 229.333 264 229.333 L 381.333 229.333 C 385.749 229.333 389.333 232.918 389.333 237.333 L 389.333 408 C 389.333 412.415 385.749 416 381.333 416 L 130.667 416 C 126.251 416 122.667 412.415 122.667 408 L 122.667 130.667 C 122.667 126.251 126.251 122.667 130.667 122.667 Z " fill="rgb(16,88,89)"/><path d=" M 282.667 77.333 L 282.667 194.667 C 282.667 199.082 286.251 202.667 290.667 202.667 L 408 202.667 C 412.415 202.667 416 199.082 416 194.667 L 416 77.333 C 416 72.918 412.415 69.333 408 69.333 L 290.667 69.333 C 286.251 69.333 282.667 72.918 282.667 77.333 Z " fill="rgb(12,121,103)"/><path d=" M 416 264 L 416 434.667 C 416 439.082 412.415 442.667 408 442.667 L 264 442.667 C 259.585 442.667 256 446.251 256 450.667 L 256 488 C 256 492.415 259.585 496 264 496 L 461.333 496 C 465.749 496 469.333 492.415 469.333 488 L 469.333 264 C 469.333 259.585 465.749 256 461.333 256 L 424 256 C 419.585 256 416 259.585 416 264 Z " fill="rgb(17,121,123)"/><path d=" M 176 450.667 L 176 461.333 C 176 465.749 172.415 469.333 168 469.333 L 77.333 469.333 C 72.918 469.333 69.333 465.749 69.333 461.333 L 69.333 264 C 69.333 259.585 72.918 256 77.333 256 L 88 256 C 92.415 256 96 259.585 96 264 L 96 434.667 C 96 439.082 99.585 442.667 104 442.667 L 168 442.667 C 172.415 442.667 176 446.251 176 450.667 Z " fill="rgb(10,82,100)"/><path d=" M 96 157.333 L 96 221.333 C 96 225.749 92.415 229.333 88 229.333 L 24 229.333 C 19.585 229.333 16 225.749 16 221.333 L 16 157.333 C 16 152.918 19.585 149.333 24 149.333 L 88 149.333 C 92.415 149.333 96 152.918 96 157.333 Z " fill="rgb(12,115,140)"/><path d=" M 221.333 69.333 L 184 69.333 C 179.585 69.333 176 65.749 176 61.333 L 176 24 C 176 19.585 179.585 16 184 16 L 221.333 16 C 225.749 16 229.333 19.585 229.333 24 L 229.333 61.333 C 229.333 65.749 225.749 69.333 221.333 69.333 Z " fill="rgb(16,155,102)"/><path d=" M 442.667 104 L 442.667 141.333 C 442.667 145.749 446.251 149.333 450.667 149.333 L 488 149.333 C 492.415 149.333 496 145.749 496 141.333 L 496 104 C 496 99.585 492.415 96 488 96 L 450.667 96 C 446.251 96 442.667 99.585 442.667 104 Z " fill="rgb(27,149,102)"/></g></svg>